<?xml version="1.0" encoding="UTF-8" standalone="no"?><svg xmlns="http://www.w3.org/2000/svg" xmlns:xlink="http://www.w3.org/1999/xlink" contentScriptType="application/ecmascript" contentStyleType="text/css" height="2377px" preserveAspectRatio="none" style="width:976px;height:2377px;" version="1.1" viewBox="0 0 976 2377" width="976px" zoomAndPan="magnify"><defs><filter height="300%" id="fb2u512ngz5z0" width="300%" x="-1" y="-1"><feGaussianBlur result="blurOut" stdDeviation="2.0"/><feColorMatrix in="blurOut" result="blurOut2" type="matrix" values="0 0 0 0 0 0 0 0 0 0 0 0 0 0 0 0 0 0 .4 0"/><feOffset dx="4.0" dy="4.0" in="blurOut2" result="blurOut3"/><feBlend in="SourceGraphic" in2="blurOut3" mode="normal"/></filter></defs><g><rect fill="#FFFFFF" filter="url(#fb2u512ngz5z0)" height="134.5527" style="stroke: #000000; stroke-width: 2.0;" width="931.5" x="23" y="364.9727"/><rect fill="#FFFFFF" filter="url(#fb2u512ngz5z0)" height="75.9316" style="stroke: #000000; stroke-width: 2.0;" width="420.5" x="23" y="513.5254"/><rect fill="#FFFFFF" filter="url(#fb2u512ngz5z0)" height="75.9316" style="stroke: #000000; stroke-width: 2.0;" width="615.5" x="23" y="603.457"/><rect fill="#FFFFFF" filter="url(#fb2u512ngz5z0)" height="219.1738" style="stroke: #000000; stroke-width: 2.0;" width="680.5" x="116" y="736.6992"/><rect fill="#FFFFFF" filter="url(#fb2u512ngz5z0)" height="492.2793" style="stroke: #000000; stroke-width: 2.0;" width="793.5" x="13" y="1013.1836"/><rect fill="#FFFFFF" filter="url(#fb2u512ngz5z0)" height="75.9316" style="stroke: #000000; stroke-width: 2.0;" width="773.5" x="23" y="1037.4941"/><rect fill="#FFFFFF" filter="url(#fb2u512ngz5z0)" height="163.8633" style="stroke: #000000; stroke-width: 2.0;" width="773.5" x="23" y="1127.4258"/><rect fill="#FFFFFF" filter="url(#fb2u512ngz5z0)" height="193.1738" style="stroke: #000000; stroke-width: 2.0;" width="773.5" x="23" y="1305.2891"/><rect fill="#FFFFFF" filter="url(#fb2u512ngz5z0)" height="251.7949" style="stroke: #000000; stroke-width: 2.0;" width="773.5" x="23" y="1519.4629"/><rect fill="#FFFFFF" filter="url(#fb2u512ngz5z0)" height="193.1738" style="stroke: #000000; stroke-width: 2.0;" width="773.5" x="23" y="1785.2578"/><rect fill="#FFFFFF" filter="url(#fb2u512ngz5z0)" height="178.8184" style="stroke: #000000; stroke-width: 2.0;" width="420.5" x="23" y="2094.3633"/><rect fill="#FFFFFF" height="44.2656" style="stroke: none; stroke-width: 1.0;" width="420.5" x="23" y="2228.916"/><line style="stroke: #A80036; stroke-width: 1.0; stroke-dasharray: 5.0,5.0;" x1="51" x2="51" y1="86.4883" y2="2290.1816"/><line style="stroke: #A80036; stroke-width: 1.0; stroke-dasharray: 5.0,5.0;" x1="98" x2="98" y1="86.4883" y2="2290.1816"/><line style="stroke: #A80036; stroke-width: 1.0; stroke-dasharray: 5.0,5.0;" x1="160" x2="160" y1="86.4883" y2="2290.1816"/><line style="stroke: #A80036; stroke-width: 1.0; stroke-dasharray: 5.0,5.0;" x1="392.5" x2="392.5" y1="86.4883" y2="2290.1816"/><line style="stroke: #A80036; stroke-width: 1.0; stroke-dasharray: 5.0,5.0;" x1="594.5" x2="594.5" y1="86.4883" y2="2290.1816"/><line style="stroke: #A80036; stroke-width: 1.0; stroke-dasharray: 5.0,5.0;" x1="674.5" x2="674.5" y1="86.4883" y2="2290.1816"/><line style="stroke: #A80036; stroke-width: 1.0; stroke-dasharray: 5.0,5.0;" x1="753.5" x2="753.5" y1="86.4883" y2="2290.1816"/><line style="stroke: #A80036; stroke-width: 1.0; stroke-dasharray: 5.0,5.0;" x1="839.5" x2="839.5" y1="86.4883" y2="2290.1816"/><line style="stroke: #A80036; stroke-width: 1.0; stroke-dasharray: 5.0,5.0;" x1="918.5" x2="918.5" y1="86.4883" y2="2290.1816"/><text fill="#000000" font-family="sans-serif" font-size="14" lengthAdjust="spacingAndGlyphs" textLength="31" x="33" y="83.5352">User</text><ellipse cx="51.5" cy="13" fill="#FEFECE" filter="url(#fb2u512ngz5z0)" rx="8" ry="8" style="stroke: #A80036; stroke-width: 2.0;"/><path d="M51.5,21 L51.5,48 M38.5,29 L64.5,29 M51.5,48 L38.5,63 M51.5,48 L64.5,63 " fill="none" filter="url(#fb2u512ngz5z0)" style="stroke: #A80036; stroke-width: 2.0;"/><text fill="#000000" font-family="sans-serif" font-size="14" lengthAdjust="spacingAndGlyphs" textLength="31" x="33" y="2302.7168">User</text><ellipse cx="51.5" cy="2315.6699" fill="#FEFECE" filter="url(#fb2u512ngz5z0)" rx="8" ry="8" style="stroke: #A80036; stroke-width: 2.0;"/><path d="M51.5,2323.6699 L51.5,2350.6699 M38.5,2331.6699 L64.5,2331.6699 M51.5,2350.6699 L38.5,2365.6699 M51.5,2350.6699 L64.5,2365.6699 " fill="none" filter="url(#fb2u512ngz5z0)" style="stroke: #A80036; stroke-width: 2.0;"/><text fill="#000000" font-family="sans-serif" font-size="14" lengthAdjust="spacingAndGlyphs" textLength="12" x="89" y="83.5352">fs</text><path d="M80,34 C80,24 98,24 98,24 C98,24 116,24 116,34 L116,60 C116,70 98,70 98,70 C98,70 80,70 80,60 L80,34 " fill="#FEFECE" filter="url(#fb2u512ngz5z0)" style="stroke: #000000; stroke-width: 1.5;"/><path d="M80,34 C80,44 98,44 98,44 C98,44 116,44 116,34 " fill="none" style="stroke: #000000; stroke-width: 1.5;"/><text fill="#000000" font-family="sans-serif" font-size="14" lengthAdjust="spacingAndGlyphs" textLength="12" x="89" y="2302.7168">fs</text><path d="M80,2315.6699 C80,2305.6699 98,2305.6699 98,2305.6699 C98,2305.6699 116,2305.6699 116,2315.6699 L116,2341.6699 C116,2351.6699 98,2351.6699 98,2351.6699 C98,2351.6699 80,2351.6699 80,2341.6699 L80,2315.6699 " fill="#FEFECE" filter="url(#fb2u512ngz5z0)" style="stroke: #000000; stroke-width: 1.5;"/><path d="M80,2315.6699 C80,2325.6699 98,2325.6699 98,2325.6699 C98,2325.6699 116,2325.6699 116,2315.6699 " fill="none" style="stroke: #000000; stroke-width: 1.5;"/><rect fill="#FEFECE" filter="url(#fb2u512ngz5z0)" height="30.4883" style="stroke: #A80036; stroke-width: 1.5;" width="65" x="126" y="51"/><text fill="#000000" font-family="sans-serif" font-size="14" lengthAdjust="spacingAndGlyphs" textLength="51" x="133" y="71.5352">Cubase</text><rect fill="#FEFECE" filter="url(#fb2u512ngz5z0)" height="30.4883" style="stroke: #A80036; stroke-width: 1.5;" width="65" x="126" y="2289.1816"/><text fill="#000000" font-family="sans-serif" font-size="14" lengthAdjust="spacingAndGlyphs" textLength="51" x="133" y="2309.7168">Cubase</text><rect fill="#FEFECE" filter="url(#fb2u512ngz5z0)" height="30.4883" style="stroke: #A80036; stroke-width: 1.5;" width="77" x="352.5" y="51"/><text fill="#000000" font-family="sans-serif" font-size="14" lengthAdjust="spacingAndGlyphs" textLength="63" x="359.5" y="71.5352">Launcher</text><rect fill="#FEFECE" filter="url(#fb2u512ngz5z0)" height="30.4883" style="stroke: #A80036; stroke-width: 1.5;" width="77" x="352.5" y="2289.1816"/><text fill="#000000" font-family="sans-serif" font-size="14" lengthAdjust="spacingAndGlyphs" textLength="63" x="359.5" y="2309.7168">Launcher</text><rect fill="#FEFECE" filter="url(#fb2u512ngz5z0)" height="30.4883" style="stroke: #A80036; stroke-width: 1.5;" width="63" x="561.5" y="51"/><text fill="#000000" font-family="sans-serif" font-size="14" lengthAdjust="spacingAndGlyphs" textLength="49" x="568.5" y="71.5352">Algolet</text><rect fill="#FEFECE" filter="url(#fb2u512ngz5z0)" height="30.4883" style="stroke: #A80036; stroke-width: 1.5;" width="63" x="561.5" y="2289.1816"/><text fill="#000000" font-family="sans-serif" font-size="14" lengthAdjust="spacingAndGlyphs" textLength="49" x="568.5" y="2309.7168">Algolet</text><rect fill="#FEFECE" filter="url(#fb2u512ngz5z0)" height="30.4883" style="stroke: #A80036; stroke-width: 1.5;" width="69" x="638.5" y="51"/><text fill="#000000" font-family="sans-serif" font-size="14" lengthAdjust="spacingAndGlyphs" textLength="55" x="645.5" y="71.5352">Sheetlet</text><rect fill="#FEFECE" filter="url(#fb2u512ngz5z0)" height="30.4883" style="stroke: #A80036; stroke-width: 1.5;" width="69" x="638.5" y="2289.1816"/><text fill="#000000" font-family="sans-serif" font-size="14" lengthAdjust="spacingAndGlyphs" textLength="55" x="645.5" y="2309.7168">Sheetlet</text><rect fill="#FEFECE" filter="url(#fb2u512ngz5z0)" height="30.4883" style="stroke: #A80036; stroke-width: 1.5;" width="61" x="721.5" y="51"/><text fill="#000000" font-family="sans-serif" font-size="14" lengthAdjust="spacingAndGlyphs" textLength="47" x="728.5" y="71.5352">Rolelet</text><rect fill="#FEFECE" filter="url(#fb2u512ngz5z0)" height="30.4883" style="stroke: #A80036; stroke-width: 1.5;" width="61" x="721.5" y="2289.1816"/><text fill="#000000" font-family="sans-serif" font-size="14" lengthAdjust="spacingAndGlyphs" textLength="47" x="728.5" y="2309.7168">Rolelet</text><text fill="#000000" font-family="sans-serif" font-size="14" lengthAdjust="spacingAndGlyphs" textLength="80" x="796.5" y="83.5352">PkgRegistry</text><path d="M821.5,34 C821.5,24 839.5,24 839.5,24 C839.5,24 857.5,24 857.5,34 L857.5,60 C857.5,70 839.5,70 839.5,70 C839.5,70 821.5,70 821.5,60 L821.5,34 " fill="#FEFECE" filter="url(#fb2u512ngz5z0)" style="stroke: #000000; stroke-width: 1.5;"/><path d="M821.5,34 C821.5,44 839.5,44 839.5,44 C839.5,44 857.5,44 857.5,34 " fill="none" style="stroke: #000000; stroke-width: 1.5;"/><text fill="#000000" font-family="sans-serif" font-size="14" lengthAdjust="spacingAndGlyphs" textLength="80" x="796.5" y="2302.7168">PkgRegistry</text><path d="M821.5,2315.6699 C821.5,2305.6699 839.5,2305.6699 839.5,2305.6699 C839.5,2305.6699 857.5,2305.6699 857.5,2315.6699 L857.5,2341.6699 C857.5,2351.6699 839.5,2351.6699 839.5,2351.6699 C839.5,2351.6699 821.5,2351.6699 821.5,2341.6699 L821.5,2315.6699 " fill="#FEFECE" filter="url(#fb2u512ngz5z0)" style="stroke: #000000; stroke-width: 1.5;"/><path d="M821.5,2315.6699 C821.5,2325.6699 839.5,2325.6699 839.5,2325.6699 C839.5,2325.6699 857.5,2325.6699 857.5,2315.6699 " fill="none" style="stroke: #000000; stroke-width: 1.5;"/><text fill="#000000" font-family="sans-serif" font-size="14" lengthAdjust="spacingAndGlyphs" textLength="46" x="892.5" y="83.5352">Github</text><path d="M900.5,34 C900.5,24 918.5,24 918.5,24 C918.5,24 936.5,24 936.5,34 L936.5,60 C936.5,70 918.5,70 918.5,70 C918.5,70 900.5,70 900.5,60 L900.5,34 " fill="#FEFECE" filter="url(#fb2u512ngz5z0)" style="stroke: #000000; stroke-width: 1.5;"/><path d="M900.5,34 C900.5,44 918.5,44 918.5,44 C918.5,44 936.5,44 936.5,34 " fill="none" style="stroke: #000000; stroke-width: 1.5;"/><text fill="#000000" font-family="sans-serif" font-size="14" lengthAdjust="spacingAndGlyphs" textLength="46" x="892.5" y="2302.7168">Github</text><path d="M900.5,2315.6699 C900.5,2305.6699 918.5,2305.6699 918.5,2305.6699 C918.5,2305.6699 936.5,2305.6699 936.5,2315.6699 L936.5,2341.6699 C936.5,2351.6699 918.5,2351.6699 918.5,2351.6699 C918.5,2351.6699 900.5,2351.6699 900.5,2341.6699 L900.5,2315.6699 " fill="#FEFECE" filter="url(#fb2u512ngz5z0)" style="stroke: #000000; stroke-width: 1.5;"/><path d="M900.5,2315.6699 C900.5,2325.6699 918.5,2325.6699 918.5,2325.6699 C918.5,2325.6699 936.5,2325.6699 936.5,2315.6699 " fill="none" style="stroke: #000000; stroke-width: 1.5;"/><rect fill="#EEEEEE" filter="url(#fb2u512ngz5z0)" height="3" style="stroke: #EEEEEE; stroke-width: 1.0;" width="961.5" x="3" y="117.1436"/><line style="stroke: #000000; stroke-width: 1.0;" x1="3" x2="964.5" y1="117.1436" y2="117.1436"/><line style="stroke: #000000; stroke-width: 1.0;" x1="3" x2="964.5" y1="120.1436" y2="120.1436"/><rect fill="#EEEEEE" filter="url(#fb2u512ngz5z0)" height="23.3105" style="stroke: #000000; stroke-width: 2.0;" width="102" x="432.75" y="106.4883"/><text fill="#000000" font-family="sans-serif" font-size="13" font-weight="bold" lengthAdjust="spacingAndGlyphs" textLength="84" x="438.75" y="123.0566">Initialization</text><polygon fill="#A80036" points="381,157.1094,391,161.1094,381,165.1094,385,161.1094" style="stroke: #A80036; stroke-width: 1.0;"/><line style="stroke: #A80036; stroke-width: 1.0;" x1="51.5" x2="387" y1="161.1094" y2="161.1094"/><text fill="#000000" font-family="sans-serif" font-size="13" lengthAdjust="spacingAndGlyphs" textLength="122" x="58.5" y="156.3672">Click Launcher App</text><line style="stroke: #A80036; stroke-width: 1.0;" x1="393" x2="435" y1="190.4199" y2="190.4199"/><line style="stroke: #A80036; stroke-width: 1.0;" x1="435" x2="435" y1="190.4199" y2="203.4199"/><line style="stroke: #A80036; stroke-width: 1.0;" x1="394" x2="435" y1="203.4199" y2="203.4199"/><polygon fill="#A80036" points="404,199.4199,394,203.4199,404,207.4199,400,203.4199" style="stroke: #A80036; stroke-width: 1.0;"/><text fill="#000000" font-family="sans-serif" font-size="13" lengthAdjust="spacingAndGlyphs" textLength="126" x="400" y="185.6777">Start the core server</text><polygon fill="#A80036" points="827.5,228.7305,837.5,232.7305,827.5,236.7305,831.5,232.7305" style="stroke: #A80036; stroke-width: 1.0;"/><line style="stroke: #A80036; stroke-width: 1.0;" x1="393" x2="833.5" y1="232.7305" y2="232.7305"/><text fill="#000000" font-family="sans-serif" font-size="13" lengthAdjust="spacingAndGlyphs" textLength="157" x="400" y="227.9883">Fetch installable Dawlets</text><polygon fill="#A80036" points="404,258.041,394,262.041,404,266.041,400,262.041" style="stroke: #A80036; stroke-width: 1.0;"/><line style="stroke: #A80036; stroke-width: 1.0; stroke-dasharray: 2.0,2.0;" x1="398" x2="838.5" y1="262.041" y2="262.041"/><text fill="#000000" font-family="sans-serif" font-size="13" lengthAdjust="spacingAndGlyphs" textLength="119" x="410" y="257.2988">Installable Dawlets</text><polygon fill="#A80036" points="109,287.3516,99,291.3516,109,295.3516,105,291.3516" style="stroke: #A80036; stroke-width: 1.0;"/><line style="stroke: #A80036; stroke-width: 1.0;" x1="103" x2="392" y1="291.3516" y2="291.3516"/><text fill="#000000" font-family="sans-serif" font-size="13" lengthAdjust="spacingAndGlyphs" textLength="141" x="115" y="286.6094">Scan Installed Dawlets</text><polygon fill="#A80036" points="381,316.6621,391,320.6621,381,324.6621,385,320.6621" style="stroke: #A80036; stroke-width: 1.0;"/><line style="stroke: #A80036; stroke-width: 1.0; stroke-dasharray: 2.0,2.0;" x1="98" x2="387" y1="320.6621" y2="320.6621"/><text fill="#000000" font-family="sans-serif" font-size="13" lengthAdjust="spacingAndGlyphs" textLength="149" x="105" y="315.9199">Installed Dawlets' Paths</text><polygon fill="#A80036" points="62.5,345.9727,52.5,349.9727,62.5,353.9727,58.5,349.9727" style="stroke: #A80036; stroke-width: 1.0;"/><line style="stroke: #A80036; stroke-width: 1.0;" x1="56.5" x2="392" y1="349.9727" y2="349.9727"/><text fill="#000000" font-family="sans-serif" font-size="13" lengthAdjust="spacingAndGlyphs" textLength="217" x="68.5" y="345.2305">Show Installed/Installable Dawlets</text><path d="M23,364.9727 L85,364.9727 L85,371.9727 L75,381.9727 L23,381.9727 L23,364.9727 " fill="#EEEEEE" style="stroke: #000000; stroke-width: 1.0;"/><rect fill="none" height="134.5527" style="stroke: #000000; stroke-width: 2.0;" width="931.5" x="23" y="364.9727"/><text fill="#000000" font-family="sans-serif" font-size="13" font-weight="bold" lengthAdjust="spacingAndGlyphs" textLength="17" x="38" y="378.541">alt</text><text fill="#000000" font-family="sans-serif" font-size="11" font-weight="bold" lengthAdjust="spacingAndGlyphs" textLength="43" x="100" y="377.6074">[Install]</text><polygon fill="#A80036" points="381,399.5938,391,403.5938,381,407.5938,385,403.5938" style="stroke: #A80036; stroke-width: 1.0;"/><line style="stroke: #A80036; stroke-width: 1.0;" x1="51.5" x2="387" y1="403.5938" y2="403.5938"/><text fill="#000000" font-family="sans-serif" font-size="13" lengthAdjust="spacingAndGlyphs" textLength="212" x="58.5" y="398.8516">Click on the Install Dawlet button</text><polygon fill="#A80036" points="906.5,428.9043,916.5,432.9043,906.5,436.9043,910.5,432.9043" style="stroke: #A80036; stroke-width: 1.0;"/><line style="stroke: #A80036; stroke-width: 1.0;" x1="393" x2="912.5" y1="432.9043" y2="432.9043"/><text fill="#000000" font-family="sans-serif" font-size="13" lengthAdjust="spacingAndGlyphs" textLength="144" x="400" y="428.1621">Fetch the latest Dawlet</text><polygon fill="#A80036" points="404,458.2148,394,462.2148,404,466.2148,400,462.2148" style="stroke: #A80036; stroke-width: 1.0;"/><line style="stroke: #A80036; stroke-width: 1.0; stroke-dasharray: 2.0,2.0;" x1="398" x2="917.5" y1="462.2148" y2="462.2148"/><text fill="#000000" font-family="sans-serif" font-size="13" lengthAdjust="spacingAndGlyphs" textLength="122" x="410" y="457.4727">$(DawletName).app</text><polygon fill="#A80036" points="109,487.5254,99,491.5254,109,495.5254,105,491.5254" style="stroke: #A80036; stroke-width: 1.0;"/><line style="stroke: #A80036; stroke-width: 1.0;" x1="103" x2="392" y1="491.5254" y2="491.5254"/><text fill="#000000" font-family="sans-serif" font-size="13" lengthAdjust="spacingAndGlyphs" textLength="179" x="115" y="486.7832">Save the downloaded Dawlet</text><path d="M23,513.5254 L85,513.5254 L85,520.5254 L75,530.5254 L23,530.5254 L23,513.5254 " fill="#EEEEEE" style="stroke: #000000; stroke-width: 1.0;"/><rect fill="none" height="75.9316" style="stroke: #000000; stroke-width: 2.0;" width="420.5" x="23" y="513.5254"/><text fill="#000000" font-family="sans-serif" font-size="13" font-weight="bold" lengthAdjust="spacingAndGlyphs" textLength="17" x="38" y="527.0938">alt</text><text fill="#000000" font-family="sans-serif" font-size="11" font-weight="bold" lengthAdjust="spacingAndGlyphs" textLength="58" x="100" y="526.1602">[Uninstall]</text><polygon fill="#A80036" points="381,548.1465,391,552.1465,381,556.1465,385,552.1465" style="stroke: #A80036; stroke-width: 1.0;"/><line style="stroke: #A80036; stroke-width: 1.0;" x1="51.5" x2="387" y1="552.1465" y2="552.1465"/><text fill="#000000" font-family="sans-serif" font-size="13" lengthAdjust="spacingAndGlyphs" textLength="229" x="58.5" y="547.4043">Click on the Uninstall Dawlet button</text><polygon fill="#A80036" points="109,577.457,99,581.457,109,585.457,105,581.457" style="stroke: #A80036; stroke-width: 1.0;"/><line style="stroke: #A80036; stroke-width: 1.0;" x1="103" x2="392" y1="581.457" y2="581.457"/><text fill="#000000" font-family="sans-serif" font-size="13" lengthAdjust="spacingAndGlyphs" textLength="271" x="115" y="576.7148">Remove the Dawlet from Application folder</text><path d="M23,603.457 L85,603.457 L85,610.457 L75,620.457 L23,620.457 L23,603.457 " fill="#EEEEEE" style="stroke: #000000; stroke-width: 1.0;"/><rect fill="none" height="75.9316" style="stroke: #000000; stroke-width: 2.0;" width="615.5" x="23" y="603.457"/><text fill="#000000" font-family="sans-serif" font-size="13" font-weight="bold" lengthAdjust="spacingAndGlyphs" textLength="17" x="38" y="617.0254">alt</text><text fill="#000000" font-family="sans-serif" font-size="11" font-weight="bold" lengthAdjust="spacingAndGlyphs" textLength="47" x="100" y="616.0918">[Launch]</text><polygon fill="#A80036" points="381,638.0781,391,642.0781,381,646.0781,385,642.0781" style="stroke: #A80036; stroke-width: 1.0;"/><line style="stroke: #A80036; stroke-width: 1.0;" x1="51.5" x2="387" y1="642.0781" y2="642.0781"/><text fill="#000000" font-family="sans-serif" font-size="13" lengthAdjust="spacingAndGlyphs" textLength="168" x="58.5" y="637.3359">Click on the launch button</text><polygon fill="#A80036" points="583,667.3887,593,671.3887,583,675.3887,587,671.3887" style="stroke: #A80036; stroke-width: 1.0;"/><line style="stroke: #A80036; stroke-width: 1.0;" x1="393" x2="589" y1="671.3887" y2="671.3887"/><text fill="#000000" font-family="sans-serif" font-size="13" lengthAdjust="spacingAndGlyphs" textLength="155" x="400" y="666.6465">Launch Algolet(example)</text><rect fill="#EEEEEE" filter="url(#fb2u512ngz5z0)" height="3" style="stroke: #EEEEEE; stroke-width: 1.0;" width="961.5" x="3" y="707.0439"/><line style="stroke: #000000; stroke-width: 1.0;" x1="3" x2="964.5" y1="707.0439" y2="707.0439"/><line style="stroke: #000000; stroke-width: 1.0;" x1="3" x2="964.5" y1="710.0439" y2="710.0439"/><rect fill="#EEEEEE" filter="url(#fb2u512ngz5z0)" height="23.3105" style="stroke: #000000; stroke-width: 2.0;" width="63" x="452.25" y="696.3887"/><text fill="#000000" font-family="sans-serif" font-size="13" font-weight="bold" lengthAdjust="spacingAndGlyphs" textLength="45" x="458.25" y="712.957">Import</text><path d="M116,736.6992 L178,736.6992 L178,743.6992 L168,753.6992 L116,753.6992 L116,736.6992 " fill="#EEEEEE" style="stroke: #000000; stroke-width: 1.0;"/><rect fill="none" height="219.1738" style="stroke: #000000; stroke-width: 2.0;" width="680.5" x="116" y="736.6992"/><text fill="#000000" font-family="sans-serif" font-size="13" font-weight="bold" lengthAdjust="spacingAndGlyphs" textLength="17" x="131" y="750.2676">alt</text><text fill="#000000" font-family="sans-serif" font-size="11" font-weight="bold" lengthAdjust="spacingAndGlyphs" textLength="56" x="193" y="749.334">[Optional]</text><polygon fill="#A80036" points="381,771.3203,391,775.3203,381,779.3203,385,775.3203" style="stroke: #A80036; stroke-width: 1.0;"/><line style="stroke: #A80036; stroke-width: 1.0;" x1="160.5" x2="387" y1="775.3203" y2="775.3203"/><text fill="#000000" font-family="sans-serif" font-size="13" lengthAdjust="spacingAndGlyphs" textLength="122" x="167.5" y="770.5781">DnD(?)/export MIDI</text><line style="stroke: #A80036; stroke-width: 1.0;" x1="393" x2="435" y1="804.6309" y2="804.6309"/><line style="stroke: #A80036; stroke-width: 1.0;" x1="435" x2="435" y1="804.6309" y2="817.6309"/><line style="stroke: #A80036; stroke-width: 1.0;" x1="394" x2="435" y1="817.6309" y2="817.6309"/><polygon fill="#A80036" points="404,813.6309,394,817.6309,404,821.6309,400,817.6309" style="stroke: #A80036; stroke-width: 1.0;"/><text fill="#000000" font-family="sans-serif" font-size="13" lengthAdjust="spacingAndGlyphs" textLength="67" x="400" y="799.8887">parse MIDI</text><line style="stroke: #A80036; stroke-width: 1.0;" x1="393" x2="435" y1="846.9414" y2="846.9414"/><line style="stroke: #A80036; stroke-width: 1.0;" x1="435" x2="435" y1="846.9414" y2="859.9414"/><line style="stroke: #A80036; stroke-width: 1.0;" x1="394" x2="435" y1="859.9414" y2="859.9414"/><polygon fill="#A80036" points="404,855.9414,394,859.9414,404,863.9414,400,859.9414" style="stroke: #A80036; stroke-width: 1.0;"/><text fill="#000000" font-family="sans-serif" font-size="13" lengthAdjust="spacingAndGlyphs" textLength="91" x="400" y="842.1992">createGroup(s)</text><polygon fill="#A80036" points="583,885.252,593,889.252,583,893.252,587,889.252" style="stroke: #A80036; stroke-width: 1.0;"/><line style="stroke: #A80036; stroke-width: 1.0; stroke-dasharray: 2.0,2.0;" x1="393" x2="589" y1="889.252" y2="889.252"/><text fill="#000000" font-family="sans-serif" font-size="13" lengthAdjust="spacingAndGlyphs" textLength="103" x="400" y="884.5098">broadcast group</text><polygon fill="#A80036" points="663,914.5625,673,918.5625,663,922.5625,667,918.5625" style="stroke: #A80036; stroke-width: 1.0;"/><line style="stroke: #A80036; stroke-width: 1.0; stroke-dasharray: 2.0,2.0;" x1="393" x2="669" y1="918.5625" y2="918.5625"/><text fill="#000000" font-family="sans-serif" font-size="13" lengthAdjust="spacingAndGlyphs" textLength="103" x="400" y="913.8203">broadcast group</text><polygon fill="#A80036" points="742,943.873,752,947.873,742,951.873,746,947.873" style="stroke: #A80036; stroke-width: 1.0;"/><line style="stroke: #A80036; stroke-width: 1.0; stroke-dasharray: 2.0,2.0;" x1="393" x2="748" y1="947.873" y2="947.873"/><text fill="#000000" font-family="sans-serif" font-size="13" lengthAdjust="spacingAndGlyphs" textLength="103" x="400" y="943.1309">broadcast group</text><rect fill="#EEEEEE" filter="url(#fb2u512ngz5z0)" height="3" style="stroke: #EEEEEE; stroke-width: 1.0;" width="961.5" x="3" y="983.5283"/><line style="stroke: #000000; stroke-width: 1.0;" x1="3" x2="964.5" y1="983.5283" y2="983.5283"/><line style="stroke: #000000; stroke-width: 1.0;" x1="3" x2="964.5" y1="986.5283" y2="986.5283"/><rect fill="#EEEEEE" filter="url(#fb2u512ngz5z0)" height="23.3105" style="stroke: #000000; stroke-width: 2.0;" width="44" x="461.75" y="972.873"/><text fill="#000000" font-family="sans-serif" font-size="13" font-weight="bold" lengthAdjust="spacingAndGlyphs" textLength="26" x="467.75" y="989.4414">Edit</text><path d="M13,1013.1836 L104,1013.1836 L104,1020.1836 L94,1030.1836 L13,1030.1836 L13,1013.1836 " fill="#EEEEEE" style="stroke: #000000; stroke-width: 1.0;"/><rect fill="none" height="492.2793" style="stroke: #000000; stroke-width: 2.0;" width="793.5" x="13" y="1013.1836"/><text fill="#000000" font-family="sans-serif" font-size="13" font-weight="bold" lengthAdjust="spacingAndGlyphs" textLength="46" x="28" y="1026.752">Rolelet</text><path d="M23,1037.4941 L159,1037.4941 L159,1044.4941 L149,1054.4941 L23,1054.4941 L23,1037.4941 " fill="#EEEEEE" style="stroke: #000000; stroke-width: 1.0;"/><rect fill="none" height="75.9316" style="stroke: #000000; stroke-width: 2.0;" width="773.5" x="23" y="1037.4941"/><text fill="#000000" font-family="sans-serif" font-size="13" font-weight="bold" lengthAdjust="spacingAndGlyphs" textLength="91" x="38" y="1051.0625">configuration</text><polygon fill="#A80036" points="742,1072.1152,752,1076.1152,742,1080.1152,746,1076.1152" style="stroke: #A80036; stroke-width: 1.0;"/><line style="stroke: #A80036; stroke-width: 1.0;" x1="51.5" x2="748" y1="1076.1152" y2="1076.1152"/><text fill="#000000" font-family="sans-serif" font-size="13" lengthAdjust="spacingAndGlyphs" textLength="205" x="58.5" y="1071.373">Configure which groups to show</text><polygon fill="#A80036" points="62.5,1101.4258,52.5,1105.4258,62.5,1109.4258,58.5,1105.4258" style="stroke: #A80036; stroke-width: 1.0;"/><line style="stroke: #A80036; stroke-width: 1.0; stroke-dasharray: 2.0,2.0;" x1="56.5" x2="753" y1="1105.4258" y2="1105.4258"/><text fill="#000000" font-family="sans-serif" font-size="13" lengthAdjust="spacingAndGlyphs" textLength="198" x="68.5" y="1100.6836">Visual Feedback as a piano-roll</text><path d="M23,1127.4258 L131,1127.4258 L131,1134.4258 L121,1144.4258 L23,1144.4258 L23,1127.4258 " fill="#EEEEEE" style="stroke: #000000; stroke-width: 1.0;"/><rect fill="none" height="163.8633" style="stroke: #000000; stroke-width: 2.0;" width="773.5" x="23" y="1127.4258"/><text fill="#000000" font-family="sans-serif" font-size="13" font-weight="bold" lengthAdjust="spacingAndGlyphs" textLength="63" x="38" y="1140.9941">grouping</text><polygon fill="#A80036" points="742,1162.0469,752,1166.0469,742,1170.0469,746,1166.0469" style="stroke: #A80036; stroke-width: 1.0;"/><line style="stroke: #A80036; stroke-width: 1.0;" x1="51.5" x2="748" y1="1166.0469" y2="1166.0469"/><text fill="#000000" font-family="sans-serif" font-size="13" lengthAdjust="spacingAndGlyphs" textLength="177" x="58.5" y="1161.3047">Select and subdivide groups</text><polygon fill="#A80036" points="404,1191.3574,394,1195.3574,404,1199.3574,400,1195.3574" style="stroke: #A80036; stroke-width: 1.0;"/><line style="stroke: #A80036; stroke-width: 1.0;" x1="398" x2="753" y1="1195.3574" y2="1195.3574"/><text fill="#000000" font-family="sans-serif" font-size="13" lengthAdjust="spacingAndGlyphs" textLength="137" x="410" y="1190.6152">createGroup mutation</text><polygon fill="#A80036" points="583,1220.668,593,1224.668,583,1228.668,587,1224.668" style="stroke: #A80036; stroke-width: 1.0;"/><line style="stroke: #A80036; stroke-width: 1.0; stroke-dasharray: 2.0,2.0;" x1="393" x2="589" y1="1224.668" y2="1224.668"/><text fill="#000000" font-family="sans-serif" font-size="13" lengthAdjust="spacingAndGlyphs" textLength="110" x="400" y="1219.9258">broadcast groups</text><polygon fill="#A80036" points="663,1249.9785,673,1253.9785,663,1257.9785,667,1253.9785" style="stroke: #A80036; stroke-width: 1.0;"/><line style="stroke: #A80036; stroke-width: 1.0; stroke-dasharray: 2.0,2.0;" x1="393" x2="669" y1="1253.9785" y2="1253.9785"/><text fill="#000000" font-family="sans-serif" font-size="13" lengthAdjust="spacingAndGlyphs" textLength="110" x="400" y="1249.2363">broadcast groups</text><polygon fill="#A80036" points="742,1279.2891,752,1283.2891,742,1287.2891,746,1283.2891" style="stroke: #A80036; stroke-width: 1.0;"/><line style="stroke: #A80036; stroke-width: 1.0; stroke-dasharray: 2.0,2.0;" x1="393" x2="748" y1="1283.2891" y2="1283.2891"/><text fill="#000000" font-family="sans-serif" font-size="13" lengthAdjust="spacingAndGlyphs" textLength="110" x="400" y="1278.5469">broadcast groups</text><path d="M23,1305.2891 L94,1305.2891 L94,1312.2891 L84,1322.2891 L23,1322.2891 L23,1305.2891 " fill="#EEEEEE" style="stroke: #000000; stroke-width: 1.0;"/><rect fill="none" height="193.1738" style="stroke: #000000; stroke-width: 2.0;" width="773.5" x="23" y="1305.2891"/><text fill="#000000" font-family="sans-serif" font-size="13" font-weight="bold" lengthAdjust="spacingAndGlyphs" textLength="26" x="38" y="1318.8574">edit</text><polygon fill="#A80036" points="663,1339.9102,673,1343.9102,663,1347.9102,667,1343.9102" style="stroke: #A80036; stroke-width: 1.0;"/><line style="stroke: #A80036; stroke-width: 1.0;" x1="51.5" x2="669" y1="1343.9102" y2="1343.9102"/><text fill="#000000" font-family="sans-serif" font-size="13" lengthAdjust="spacingAndGlyphs" textLength="156" x="58.5" y="1339.168">Drag a note to transpose</text><polygon fill="#A80036" points="404,1369.2207,394,1373.2207,404,1377.2207,400,1373.2207" style="stroke: #A80036; stroke-width: 1.0;"/><line style="stroke: #A80036; stroke-width: 1.0;" x1="398" x2="674" y1="1373.2207" y2="1373.2207"/><text fill="#000000" font-family="sans-serif" font-size="13" lengthAdjust="spacingAndGlyphs" textLength="134" x="410" y="1368.4785">updateNote mutation</text><polygon fill="#A80036" points="583,1398.5313,593,1402.5313,583,1406.5313,587,1402.5313" style="stroke: #A80036; stroke-width: 1.0;"/><line style="stroke: #A80036; stroke-width: 1.0; stroke-dasharray: 2.0,2.0;" x1="393" x2="589" y1="1402.5313" y2="1402.5313"/><text fill="#000000" font-family="sans-serif" font-size="13" lengthAdjust="spacingAndGlyphs" textLength="94" x="400" y="1397.7891">broadcast note</text><polygon fill="#A80036" points="663,1427.8418,673,1431.8418,663,1435.8418,667,1431.8418" style="stroke: #A80036; stroke-width: 1.0;"/><line style="stroke: #A80036; stroke-width: 1.0; stroke-dasharray: 2.0,2.0;" x1="393" x2="669" y1="1431.8418" y2="1431.8418"/><text fill="#000000" font-family="sans-serif" font-size="13" lengthAdjust="spacingAndGlyphs" textLength="94" x="400" y="1427.0996">broadcast note</text><polygon fill="#A80036" points="742,1457.1523,752,1461.1523,742,1465.1523,746,1461.1523" style="stroke: #A80036; stroke-width: 1.0;"/><line style="stroke: #A80036; stroke-width: 1.0; stroke-dasharray: 2.0,2.0;" x1="393" x2="748" y1="1461.1523" y2="1461.1523"/><text fill="#000000" font-family="sans-serif" font-size="13" lengthAdjust="spacingAndGlyphs" textLength="94" x="400" y="1456.4102">broadcast note</text><polygon fill="#A80036" points="62.5,1486.4629,52.5,1490.4629,62.5,1494.4629,58.5,1490.4629" style="stroke: #A80036; stroke-width: 1.0;"/><line style="stroke: #A80036; stroke-width: 1.0; stroke-dasharray: 2.0,2.0;" x1="56.5" x2="753" y1="1490.4629" y2="1490.4629"/><text fill="#000000" font-family="sans-serif" font-size="13" lengthAdjust="spacingAndGlyphs" textLength="198" x="68.5" y="1485.7207">Visual Feedback as a piano-roll</text><path d="M23,1519.4629 L116,1519.4629 L116,1526.4629 L106,1536.4629 L23,1536.4629 L23,1519.4629 " fill="#EEEEEE" style="stroke: #000000; stroke-width: 1.0;"/><rect fill="none" height="251.7949" style="stroke: #000000; stroke-width: 2.0;" width="773.5" x="23" y="1519.4629"/><text fill="#000000" font-family="sans-serif" font-size="13" font-weight="bold" lengthAdjust="spacingAndGlyphs" textLength="48" x="38" y="1533.0313">Algolet</text><polygon fill="#A80036" points="404,1554.084,394,1558.084,404,1562.084,400,1558.084" style="stroke: #A80036; stroke-width: 1.0;"/><line style="stroke: #A80036; stroke-width: 1.0;" x1="398" x2="594" y1="1558.084" y2="1558.084"/><text fill="#000000" font-family="sans-serif" font-size="13" lengthAdjust="spacingAndGlyphs" textLength="107" x="410" y="1553.3418">getGroup with ID</text><polygon fill="#A80036" points="583,1583.3945,593,1587.3945,583,1591.3945,587,1587.3945" style="stroke: #A80036; stroke-width: 1.0;"/><line style="stroke: #A80036; stroke-width: 1.0; stroke-dasharray: 2.0,2.0;" x1="393" x2="589" y1="1587.3945" y2="1587.3945"/><text fill="#000000" font-family="sans-serif" font-size="13" lengthAdjust="spacingAndGlyphs" textLength="178" x="400" y="1582.6523">group with associated notes</text><polygon fill="#A80036" points="404,1612.7051,394,1616.7051,404,1620.7051,400,1616.7051" style="stroke: #A80036; stroke-width: 1.0;"/><line style="stroke: #A80036; stroke-width: 1.0;" x1="398" x2="594" y1="1616.7051" y2="1616.7051"/><text fill="#000000" font-family="sans-serif" font-size="13" lengthAdjust="spacingAndGlyphs" textLength="129" x="410" y="1611.9629">createNote mutation</text><polygon fill="#A80036" points="583,1642.0156,593,1646.0156,583,1650.0156,587,1646.0156" style="stroke: #A80036; stroke-width: 1.0;"/><line style="stroke: #A80036; stroke-width: 1.0; stroke-dasharray: 2.0,2.0;" x1="393" x2="589" y1="1646.0156" y2="1646.0156"/><text fill="#000000" font-family="sans-serif" font-size="13" lengthAdjust="spacingAndGlyphs" textLength="94" x="400" y="1641.2734">broadcast note</text><polygon fill="#A80036" points="663,1671.3262,673,1675.3262,663,1679.3262,667,1675.3262" style="stroke: #A80036; stroke-width: 1.0;"/><line style="stroke: #A80036; stroke-width: 1.0; stroke-dasharray: 2.0,2.0;" x1="393" x2="669" y1="1675.3262" y2="1675.3262"/><text fill="#000000" font-family="sans-serif" font-size="13" lengthAdjust="spacingAndGlyphs" textLength="94" x="400" y="1670.584">broadcast note</text><polygon fill="#A80036" points="742,1700.6367,752,1704.6367,742,1708.6367,746,1704.6367" style="stroke: #A80036; stroke-width: 1.0;"/><line style="stroke: #A80036; stroke-width: 1.0; stroke-dasharray: 2.0,2.0;" x1="393" x2="748" y1="1704.6367" y2="1704.6367"/><text fill="#000000" font-family="sans-serif" font-size="13" lengthAdjust="spacingAndGlyphs" textLength="94" x="400" y="1699.8945">broadcast note</text><polygon fill="#A80036" points="62.5,1729.9473,52.5,1733.9473,62.5,1737.9473,58.5,1733.9473" style="stroke: #A80036; stroke-width: 1.0;"/><line style="stroke: #A80036; stroke-width: 1.0; stroke-dasharray: 2.0,2.0;" x1="56.5" x2="753" y1="1733.9473" y2="1733.9473"/><text fill="#000000" font-family="sans-serif" font-size="13" lengthAdjust="spacingAndGlyphs" textLength="198" x="68.5" y="1729.2051">Visual Feedback as a piano-roll</text><polygon fill="#A80036" points="62.5,1759.2578,52.5,1763.2578,62.5,1767.2578,58.5,1763.2578" style="stroke: #A80036; stroke-width: 1.0;"/><line style="stroke: #A80036; stroke-width: 1.0; stroke-dasharray: 2.0,2.0;" x1="56.5" x2="674" y1="1763.2578" y2="1763.2578"/><text fill="#000000" font-family="sans-serif" font-size="13" lengthAdjust="spacingAndGlyphs" textLength="210" x="68.5" y="1758.5156">Visual Feedback as a sheet music</text><path d="M23,1785.2578 L185,1785.2578 L185,1792.2578 L175,1802.2578 L23,1802.2578 L23,1785.2578 " fill="#EEEEEE" style="stroke: #000000; stroke-width: 1.0;"/><rect fill="none" height="193.1738" style="stroke: #000000; stroke-width: 2.0;" width="773.5" x="23" y="1785.2578"/><text fill="#000000" font-family="sans-serif" font-size="13" font-weight="bold" lengthAdjust="spacingAndGlyphs" textLength="117" x="38" y="1798.8262">Edit with Sheetlet</text><polygon fill="#A80036" points="663,1819.8789,673,1823.8789,663,1827.8789,667,1823.8789" style="stroke: #A80036; stroke-width: 1.0;"/><line style="stroke: #A80036; stroke-width: 1.0;" x1="51.5" x2="669" y1="1823.8789" y2="1823.8789"/><text fill="#000000" font-family="sans-serif" font-size="13" lengthAdjust="spacingAndGlyphs" textLength="156" x="58.5" y="1819.1367">Drag a note to transpose</text><polygon fill="#A80036" points="404,1849.1895,394,1853.1895,404,1857.1895,400,1853.1895" style="stroke: #A80036; stroke-width: 1.0;"/><line style="stroke: #A80036; stroke-width: 1.0;" x1="398" x2="674" y1="1853.1895" y2="1853.1895"/><text fill="#000000" font-family="sans-serif" font-size="13" lengthAdjust="spacingAndGlyphs" textLength="134" x="410" y="1848.4473">updateNote mutation</text><polygon fill="#A80036" points="583,1878.5,593,1882.5,583,1886.5,587,1882.5" style="stroke: #A80036; stroke-width: 1.0;"/><line style="stroke: #A80036; stroke-width: 1.0; stroke-dasharray: 2.0,2.0;" x1="393" x2="589" y1="1882.5" y2="1882.5"/><text fill="#000000" font-family="sans-serif" font-size="13" lengthAdjust="spacingAndGlyphs" textLength="94" x="400" y="1877.7578">broadcast note</text><polygon fill="#A80036" points="663,1907.8105,673,1911.8105,663,1915.8105,667,1911.8105" style="stroke: #A80036; stroke-width: 1.0;"/><line style="stroke: #A80036; stroke-width: 1.0; stroke-dasharray: 2.0,2.0;" x1="393" x2="669" y1="1911.8105" y2="1911.8105"/><text fill="#000000" font-family="sans-serif" font-size="13" lengthAdjust="spacingAndGlyphs" textLength="94" x="400" y="1907.0684">broadcast note</text><polygon fill="#A80036" points="742,1937.1211,752,1941.1211,742,1945.1211,746,1941.1211" style="stroke: #A80036; stroke-width: 1.0;"/><line style="stroke: #A80036; stroke-width: 1.0; stroke-dasharray: 2.0,2.0;" x1="393" x2="748" y1="1941.1211" y2="1941.1211"/><text fill="#000000" font-family="sans-serif" font-size="13" lengthAdjust="spacingAndGlyphs" textLength="94" x="400" y="1936.3789">broadcast note</text><polygon fill="#A80036" points="62.5,1966.4316,52.5,1970.4316,62.5,1974.4316,58.5,1970.4316" style="stroke: #A80036; stroke-width: 1.0;"/><line style="stroke: #A80036; stroke-width: 1.0; stroke-dasharray: 2.0,2.0;" x1="56.5" x2="674" y1="1970.4316" y2="1970.4316"/><text fill="#000000" font-family="sans-serif" font-size="13" lengthAdjust="spacingAndGlyphs" textLength="210" x="68.5" y="1965.6895">Visual Feedback as a sheet music</text><rect fill="#EEEEEE" filter="url(#fb2u512ngz5z0)" height="3" style="stroke: #EEEEEE; stroke-width: 1.0;" width="961.5" x="3" y="2006.0869"/><line style="stroke: #000000; stroke-width: 1.0;" x1="3" x2="964.5" y1="2006.0869" y2="2006.0869"/><line style="stroke: #000000; stroke-width: 1.0;" x1="3" x2="964.5" y1="2009.0869" y2="2009.0869"/><rect fill="#EEEEEE" filter="url(#fb2u512ngz5z0)" height="23.3105" style="stroke: #000000; stroke-width: 2.0;" width="62" x="452.75" y="1995.4316"/><text fill="#000000" font-family="sans-serif" font-size="13" font-weight="bold" lengthAdjust="spacingAndGlyphs" textLength="44" x="458.75" y="2012">Export</text><polygon fill="#A80036" points="381,2046.0527,391,2050.0527,381,2054.0527,385,2050.0527" style="stroke: #A80036; stroke-width: 1.0;"/><line style="stroke: #A80036; stroke-width: 1.0;" x1="51.5" x2="387" y1="2050.0527" y2="2050.0527"/><text fill="#000000" font-family="sans-serif" font-size="13" font-weight="bold" lengthAdjust="spacingAndGlyphs" textLength="9" x="58.5" y="2045.3105">1</text><text fill="#000000" font-family="sans-serif" font-size="13" lengthAdjust="spacingAndGlyphs" textLength="132" x="71.5" y="2045.3105">Open Export Options</text><polygon fill="#A80036" points="381,2075.3633,391,2079.3633,381,2083.3633,385,2079.3633" style="stroke: #A80036; stroke-width: 1.0;"/><line style="stroke: #A80036; stroke-width: 1.0;" x1="51.5" x2="387" y1="2079.3633" y2="2079.3633"/><text fill="#000000" font-family="sans-serif" font-size="13" font-weight="bold" lengthAdjust="spacingAndGlyphs" textLength="9" x="58.5" y="2074.6211">2</text><text fill="#000000" font-family="sans-serif" font-size="13" lengthAdjust="spacingAndGlyphs" textLength="213" x="71.5" y="2074.6211">Configure which groups to export</text><path d="M23,2094.3633 L85,2094.3633 L85,2101.3633 L75,2111.3633 L23,2111.3633 L23,2094.3633 " fill="#EEEEEE" style="stroke: #000000; stroke-width: 1.0;"/><rect fill="none" height="178.8184" style="stroke: #000000; stroke-width: 2.0;" width="420.5" x="23" y="2094.3633"/><text fill="#000000" font-family="sans-serif" font-size="13" font-weight="bold" lengthAdjust="spacingAndGlyphs" textLength="17" x="38" y="2107.9316">alt</text><text fill="#000000" font-family="sans-serif" font-size="11" font-weight="bold" lengthAdjust="spacingAndGlyphs" textLength="84" x="100" y="2106.998">[Export as File]</text><polygon fill="#A80036" points="381,2128.9844,391,2132.9844,381,2136.9844,385,2132.9844" style="stroke: #A80036; stroke-width: 1.0;"/><line style="stroke: #A80036; stroke-width: 1.0;" x1="51.5" x2="387" y1="2132.9844" y2="2132.9844"/><text fill="#000000" font-family="sans-serif" font-size="13" font-weight="bold" lengthAdjust="spacingAndGlyphs" textLength="9" x="58.5" y="2128.2422">3</text><text fill="#000000" font-family="sans-serif" font-size="13" lengthAdjust="spacingAndGlyphs" textLength="123" x="71.5" y="2128.2422">Click Export button</text><polygon fill="#A80036" points="62.5,2158.2949,52.5,2162.2949,62.5,2166.2949,58.5,2162.2949" style="stroke: #A80036; stroke-width: 1.0;"/><line style="stroke: #A80036; stroke-width: 1.0;" x1="56.5" x2="392" y1="2162.2949" y2="2162.2949"/><text fill="#000000" font-family="sans-serif" font-size="13" font-weight="bold" lengthAdjust="spacingAndGlyphs" textLength="9" x="68.5" y="2157.5527">4</text><text fill="#000000" font-family="sans-serif" font-size="13" lengthAdjust="spacingAndGlyphs" textLength="88" x="81.5" y="2157.5527">Prompt dialog</text><polygon fill="#A80036" points="381,2187.6055,391,2191.6055,381,2195.6055,385,2191.6055" style="stroke: #A80036; stroke-width: 1.0;"/><line style="stroke: #A80036; stroke-width: 1.0; stroke-dasharray: 2.0,2.0;" x1="51.5" x2="387" y1="2191.6055" y2="2191.6055"/><text fill="#000000" font-family="sans-serif" font-size="13" font-weight="bold" lengthAdjust="spacingAndGlyphs" textLength="9" x="58.5" y="2186.8633">5</text><text fill="#000000" font-family="sans-serif" font-size="13" lengthAdjust="spacingAndGlyphs" textLength="137" x="71.5" y="2186.8633">configure export path</text><polygon fill="#A80036" points="109,2216.916,99,2220.916,109,2224.916,105,2220.916" style="stroke: #A80036; stroke-width: 1.0;"/><line style="stroke: #A80036; stroke-width: 1.0; stroke-dasharray: 2.0,2.0;" x1="103" x2="392" y1="2220.916" y2="2220.916"/><text fill="#000000" font-family="sans-serif" font-size="13" font-weight="bold" lengthAdjust="spacingAndGlyphs" textLength="9" x="115" y="2216.1738">6</text><text fill="#000000" font-family="sans-serif" font-size="13" lengthAdjust="spacingAndGlyphs" textLength="57" x="128" y="2216.1738">Save SMF</text><line style="stroke: #000000; stroke-width: 1.0; stroke-dasharray: 2.0,2.0;" x1="23" x2="443.5" y1="2229.916" y2="2229.916"/><text fill="#000000" font-family="sans-serif" font-size="11" font-weight="bold" lengthAdjust="spacingAndGlyphs" textLength="82" x="28" y="2240.5508">[Direct Export]</text><polygon fill="#A80036" points="171.5,2261.1816,161.5,2265.1816,171.5,2269.1816,167.5,2265.1816" style="stroke: #A80036; stroke-width: 1.0;"/><line style="stroke: #A80036; stroke-width: 1.0; stroke-dasharray: 2.0,2.0;" x1="165.5" x2="392" y1="2265.1816" y2="2265.1816"/><text fill="#000000" font-family="sans-serif" font-size="13" font-weight="bold" lengthAdjust="spacingAndGlyphs" textLength="9" x="177.5" y="2260.4395">3</text><text fill="#000000" font-family="sans-serif" font-size="13" lengthAdjust="spacingAndGlyphs" textLength="57" x="190.5" y="2260.4395">DnD SMF</text><!--
@startuml Dawlet Sequence
actor User
database fs
participant Cubase
participant Launcher
participant Algolet
participant Sheetlet
participant Rolelet
database PkgRegistry
database Github

== Initialization ==

User -> Launcher: Click Launcher App
Launcher -> Launcher: Start the core server
Launcher -> PkgRegistry: Fetch installable Dawlets
Launcher <- - PkgRegistry: Installable Dawlets
Launcher -> fs: Scan Installed Dawlets
fs - -> Launcher: Installed Dawlets' Paths
User <- Launcher: Show Installed/Installable Dawlets
alt Install
  User -> Launcher: Click on the Install Dawlet button
  Launcher -> Github: Fetch the latest Dawlet
  Launcher <- - Github: $(DawletName).app
  fs <- Launcher: Save the downloaded Dawlet
end
alt Uninstall
  User -> Launcher: Click on the Uninstall Dawlet button
  fs <- Launcher: Remove the Dawlet from Application folder
end
alt Launch
  User -> Launcher: Click on the launch button
  Launcher -> Algolet: Launch Algolet(example)
end

== Import ==

alt Optional
  Cubase -> Launcher: DnD(?)/export MIDI
  Launcher -> Launcher: parse MIDI
  Launcher -> Launcher: createGroup(s)
  Launcher - -> Algolet: broadcast group
  Launcher - -> Sheetlet: broadcast group
  Launcher - -> Rolelet: broadcast group
end

== Edit ==

group Rolelet
  group configuration
    User -> Rolelet: Configure which groups to show
    User <- - Rolelet: Visual Feedback as a piano-roll
  end
  group grouping
    User -> Rolelet: Select and subdivide groups
    Rolelet -> Launcher: createGroup mutation
    Launcher - -> Algolet: broadcast groups
    Launcher - -> Sheetlet: broadcast groups
    Launcher - -> Rolelet: broadcast groups
  end
  group edit
    User -> Sheetlet: Drag a note to transpose
    Launcher <- Sheetlet: updateNote mutation
    Launcher - -> Algolet: broadcast note
    Launcher - -> Sheetlet: broadcast note
    Launcher - -> Rolelet: broadcast note
    User <- - Rolelet: Visual Feedback as a piano-roll
  end
end

group Algolet
  Algolet -> Launcher: getGroup with ID
  Algolet <- - Launcher: group with associated notes
  Algolet -> Launcher: createNote mutation
  Launcher - -> Algolet: broadcast note
  Launcher - -> Sheetlet: broadcast note
  Launcher - -> Rolelet: broadcast note
  User <- - Rolelet: Visual Feedback as a piano-roll
  User <- - Sheetlet: Visual Feedback as a sheet music
end

group Edit with Sheetlet
  User -> Sheetlet: Drag a note to transpose
  Launcher <- Sheetlet: updateNote mutation
  Launcher - -> Algolet: broadcast note
  Launcher - -> Sheetlet: broadcast note
  Launcher - -> Rolelet: broadcast note
  User <- - Sheetlet: Visual Feedback as a sheet music
end

== Export ==

autonumber
User -> Launcher: Open Export Options
User -> Launcher: Configure which groups to export
alt Export as File
  User -> Launcher: Click Export button
  User <- Launcher: Prompt dialog
  User - -> Launcher: configure export path
  fs <- - Launcher: Save SMF
else Direct Export
  autonumber 3
  Cubase <- - Launcher: DnD SMF
end

@enduml

PlantUML version 1.2019.09(Tue Aug 27 01:19:51 JST 2019)
(GPL source distribution)
Java Runtime: Java(TM) SE Runtime Environment
JVM: Java HotSpot(TM) 64-Bit Server VM
Java Version: 1.8.0_191-b12
Operating System: Mac OS X
OS Version: 10.14.4
Default Encoding: UTF-8
Language: en
Country: JP
--></g></svg>