<?xml version="1.0" encoding="UTF-8" standalone="no"?><svg xmlns="http://www.w3.org/2000/svg" xmlns:xlink="http://www.w3.org/1999/xlink" contentScriptType="application/ecmascript" contentStyleType="text/css" height="861px" preserveAspectRatio="none" style="width:861px;height:861px;" version="1.1" viewBox="0 0 861 861" width="861px" zoomAndPan="magnify"><defs><filter height="300%" id="ftyzismva9r2m" width="300%" x="-1" y="-1"><feGaussianBlur result="blurOut" stdDeviation="2.0"/><feColorMatrix in="blurOut" result="blurOut2" type="matrix" values="0 0 0 0 0 0 0 0 0 0 0 0 0 0 0 0 0 0 .4 0"/><feOffset dx="4.0" dy="4.0" in="blurOut2" result="blurOut3"/><feBlend in="SourceGraphic" in2="blurOut3" mode="normal"/></filter></defs><g><line style="stroke: #A80036; stroke-width: 1.0; stroke-dasharray: 5.0,5.0;" x1="26" x2="26" y1="86.4883" y2="773.6992"/><line style="stroke: #A80036; stroke-width: 1.0; stroke-dasharray: 5.0,5.0;" x1="73" x2="73" y1="86.4883" y2="773.6992"/><line style="stroke: #A80036; stroke-width: 1.0; stroke-dasharray: 5.0,5.0;" x1="259.5" x2="259.5" y1="86.4883" y2="773.6992"/><line style="stroke: #A80036; stroke-width: 1.0; stroke-dasharray: 5.0,5.0;" x1="427" x2="427" y1="86.4883" y2="773.6992"/><line style="stroke: #A80036; stroke-width: 1.0; stroke-dasharray: 5.0,5.0;" x1="719.5" x2="719.5" y1="86.4883" y2="773.6992"/><line style="stroke: #A80036; stroke-width: 1.0; stroke-dasharray: 5.0,5.0;" x1="803.5" x2="803.5" y1="86.4883" y2="773.6992"/><text fill="#000000" font-family="sans-serif" font-size="14" lengthAdjust="spacingAndGlyphs" textLength="31" x="8" y="83.5352">User</text><ellipse cx="26.5" cy="13" fill="#FEFECE" filter="url(#ftyzismva9r2m)" rx="8" ry="8" style="stroke: #A80036; stroke-width: 2.0;"/><path d="M26.5,21 L26.5,48 M13.5,29 L39.5,29 M26.5,48 L13.5,63 M26.5,48 L39.5,63 " fill="none" filter="url(#ftyzismva9r2m)" style="stroke: #A80036; stroke-width: 2.0;"/><text fill="#000000" font-family="sans-serif" font-size="14" lengthAdjust="spacingAndGlyphs" textLength="31" x="8" y="786.2344">User</text><ellipse cx="26.5" cy="799.1875" fill="#FEFECE" filter="url(#ftyzismva9r2m)" rx="8" ry="8" style="stroke: #A80036; stroke-width: 2.0;"/><path d="M26.5,807.1875 L26.5,834.1875 M13.5,815.1875 L39.5,815.1875 M26.5,834.1875 L13.5,849.1875 M26.5,834.1875 L39.5,849.1875 " fill="none" filter="url(#ftyzismva9r2m)" style="stroke: #A80036; stroke-width: 2.0;"/><text fill="#000000" font-family="sans-serif" font-size="14" lengthAdjust="spacingAndGlyphs" textLength="12" x="64" y="83.5352">fs</text><path d="M55,34 C55,24 73,24 73,24 C73,24 91,24 91,34 L91,60 C91,70 73,70 73,70 C73,70 55,70 55,60 L55,34 " fill="#FEFECE" filter="url(#ftyzismva9r2m)" style="stroke: #000000; stroke-width: 1.5;"/><path d="M55,34 C55,44 73,44 73,44 C73,44 91,44 91,34 " fill="none" style="stroke: #000000; stroke-width: 1.5;"/><text fill="#000000" font-family="sans-serif" font-size="14" lengthAdjust="spacingAndGlyphs" textLength="12" x="64" y="786.2344">fs</text><path d="M55,799.1875 C55,789.1875 73,789.1875 73,789.1875 C73,789.1875 91,789.1875 91,799.1875 L91,825.1875 C91,835.1875 73,835.1875 73,835.1875 C73,835.1875 55,835.1875 55,825.1875 L55,799.1875 " fill="#FEFECE" filter="url(#ftyzismva9r2m)" style="stroke: #000000; stroke-width: 1.5;"/><path d="M55,799.1875 C55,809.1875 73,809.1875 73,809.1875 C73,809.1875 91,809.1875 91,799.1875 " fill="none" style="stroke: #000000; stroke-width: 1.5;"/><rect fill="#FEFECE" filter="url(#ftyzismva9r2m)" height="30.4883" style="stroke: #A80036; stroke-width: 1.5;" width="77" x="219.5" y="51"/><text fill="#000000" font-family="sans-serif" font-size="14" lengthAdjust="spacingAndGlyphs" textLength="63" x="226.5" y="71.5352">Launcher</text><rect fill="#FEFECE" filter="url(#ftyzismva9r2m)" height="30.4883" style="stroke: #A80036; stroke-width: 1.5;" width="77" x="219.5" y="772.6992"/><text fill="#000000" font-family="sans-serif" font-size="14" lengthAdjust="spacingAndGlyphs" textLength="63" x="226.5" y="793.2344">Launcher</text><rect fill="#FEFECE" filter="url(#ftyzismva9r2m)" height="30.4883" style="stroke: #A80036; stroke-width: 1.5;" width="64" x="393" y="51"/><text fill="#000000" font-family="sans-serif" font-size="14" lengthAdjust="spacingAndGlyphs" textLength="50" x="400" y="71.5352">Corelet</text><rect fill="#FEFECE" filter="url(#ftyzismva9r2m)" height="30.4883" style="stroke: #A80036; stroke-width: 1.5;" width="64" x="393" y="772.6992"/><text fill="#000000" font-family="sans-serif" font-size="14" lengthAdjust="spacingAndGlyphs" textLength="50" x="400" y="793.2344">Corelet</text><rect fill="#FEFECE" filter="url(#ftyzismva9r2m)" height="30.4883" style="stroke: #A80036; stroke-width: 1.5;" width="63" x="686.5" y="51"/><text fill="#000000" font-family="sans-serif" font-size="14" lengthAdjust="spacingAndGlyphs" textLength="49" x="693.5" y="71.5352">Algolet</text><rect fill="#FEFECE" filter="url(#ftyzismva9r2m)" height="30.4883" style="stroke: #A80036; stroke-width: 1.5;" width="63" x="686.5" y="772.6992"/><text fill="#000000" font-family="sans-serif" font-size="14" lengthAdjust="spacingAndGlyphs" textLength="49" x="693.5" y="793.2344">Algolet</text><rect fill="#FEFECE" filter="url(#ftyzismva9r2m)" height="30.4883" style="stroke: #A80036; stroke-width: 1.5;" width="77" x="763.5" y="51"/><text fill="#000000" font-family="sans-serif" font-size="14" lengthAdjust="spacingAndGlyphs" textLength="63" x="770.5" y="71.5352">Mobilelet</text><rect fill="#FEFECE" filter="url(#ftyzismva9r2m)" height="30.4883" style="stroke: #A80036; stroke-width: 1.5;" width="77" x="763.5" y="772.6992"/><text fill="#000000" font-family="sans-serif" font-size="14" lengthAdjust="spacingAndGlyphs" textLength="63" x="770.5" y="793.2344">Mobilelet</text><rect fill="#EEEEEE" filter="url(#ftyzismva9r2m)" height="3" style="stroke: #EEEEEE; stroke-width: 1.0;" width="846.5" x="3" y="117.1436"/><line style="stroke: #000000; stroke-width: 1.0;" x1="3" x2="849.5" y1="117.1436" y2="117.1436"/><line style="stroke: #000000; stroke-width: 1.0;" x1="3" x2="849.5" y1="120.1436" y2="120.1436"/><rect fill="#EEEEEE" filter="url(#ftyzismva9r2m)" height="23.3105" style="stroke: #000000; stroke-width: 2.0;" width="102" x="375.25" y="106.4883"/><text fill="#000000" font-family="sans-serif" font-size="13" font-weight="bold" lengthAdjust="spacingAndGlyphs" textLength="84" x="381.25" y="123.0566">Initialization</text><polygon fill="#A80036" points="248,157.1094,258,161.1094,248,165.1094,252,161.1094" style="stroke: #A80036; stroke-width: 1.0;"/><line style="stroke: #A80036; stroke-width: 1.0;" x1="26.5" x2="254" y1="161.1094" y2="161.1094"/><text fill="#000000" font-family="sans-serif" font-size="13" lengthAdjust="spacingAndGlyphs" textLength="122" x="33.5" y="156.3672">Click Launcher App</text><line style="stroke: #A80036; stroke-width: 1.0;" x1="260" x2="302" y1="190.4199" y2="190.4199"/><line style="stroke: #A80036; stroke-width: 1.0;" x1="302" x2="302" y1="190.4199" y2="203.4199"/><line style="stroke: #A80036; stroke-width: 1.0;" x1="261" x2="302" y1="203.4199" y2="203.4199"/><polygon fill="#A80036" points="271,199.4199,261,203.4199,271,207.4199,267,203.4199" style="stroke: #A80036; stroke-width: 1.0;"/><text fill="#000000" font-family="sans-serif" font-size="13" lengthAdjust="spacingAndGlyphs" textLength="66" x="267" y="185.6777">Opens GUI</text><polygon fill="#A80036" points="84,228.7305,74,232.7305,84,236.7305,80,232.7305" style="stroke: #A80036; stroke-width: 1.0;"/><line style="stroke: #A80036; stroke-width: 1.0;" x1="78" x2="259" y1="232.7305" y2="232.7305"/><text fill="#000000" font-family="sans-serif" font-size="13" lengthAdjust="spacingAndGlyphs" textLength="163" x="90" y="227.9883">Fetches Available Dawlets</text><polygon fill="#A80036" points="248,258.041,258,262.041,248,266.041,252,262.041" style="stroke: #A80036; stroke-width: 1.0;"/><line style="stroke: #A80036; stroke-width: 1.0; stroke-dasharray: 2.0,2.0;" x1="73" x2="254" y1="262.041" y2="262.041"/><text fill="#000000" font-family="sans-serif" font-size="13" lengthAdjust="spacingAndGlyphs" textLength="127" x="80" y="257.2988">[ Algolet, Mobilelet ]</text><polygon fill="#A80036" points="248,287.3516,258,291.3516,248,295.3516,252,291.3516" style="stroke: #A80036; stroke-width: 1.0;"/><line style="stroke: #A80036; stroke-width: 1.0;" x1="26.5" x2="254" y1="291.3516" y2="291.3516"/><text fill="#000000" font-family="sans-serif" font-size="13" lengthAdjust="spacingAndGlyphs" textLength="130" x="33.5" y="286.6094">Sets Algolet with IPC</text><polygon fill="#A80036" points="248,316.6621,258,320.6621,248,324.6621,252,320.6621" style="stroke: #A80036; stroke-width: 1.0;"/><line style="stroke: #A80036; stroke-width: 1.0;" x1="26.5" x2="254" y1="320.6621" y2="320.6621"/><text fill="#000000" font-family="sans-serif" font-size="13" lengthAdjust="spacingAndGlyphs" textLength="87" x="33.5" y="315.9199">Sets with http</text><polygon fill="#A80036" points="415,345.9727,425,349.9727,415,353.9727,419,349.9727" style="stroke: #A80036; stroke-width: 1.0;"/><line style="stroke: #A80036; stroke-width: 1.0;" x1="260" x2="421" y1="349.9727" y2="349.9727"/><text fill="#000000" font-family="sans-serif" font-size="13" lengthAdjust="spacingAndGlyphs" textLength="143" x="267" y="345.2305">Boots Apollo Server Up</text><polygon fill="#A80036" points="708,375.2832,718,379.2832,708,383.2832,712,379.2832" style="stroke: #A80036; stroke-width: 1.0;"/><line style="stroke: #A80036; stroke-width: 1.0;" x1="427" x2="714" y1="379.2832" y2="379.2832"/><text fill="#000000" font-family="sans-serif" font-size="13" lengthAdjust="spacingAndGlyphs" textLength="157" x="434" y="374.541">Boots Algolet Up (Spawn)</text><polygon fill="#A80036" points="792,404.5938,802,408.5938,792,412.5938,796,408.5938" style="stroke: #A80036; stroke-width: 1.0;"/><line style="stroke: #A80036; stroke-width: 1.0;" x1="260" x2="798" y1="408.5938" y2="408.5938"/><text fill="#000000" font-family="sans-serif" font-size="13" lengthAdjust="spacingAndGlyphs" textLength="118" x="267" y="403.8516">Boots Mobilelet Up</text><rect fill="#EEEEEE" filter="url(#ftyzismva9r2m)" height="3" style="stroke: #EEEEEE; stroke-width: 1.0;" width="846.5" x="3" y="437.249"/><line style="stroke: #000000; stroke-width: 1.0;" x1="3" x2="849.5" y1="437.249" y2="437.249"/><line style="stroke: #000000; stroke-width: 1.0;" x1="3" x2="849.5" y1="440.249" y2="440.249"/><rect fill="#EEEEEE" filter="url(#ftyzismva9r2m)" height="23.3105" style="stroke: #000000; stroke-width: 2.0;" width="145" x="353.75" y="426.5938"/><text fill="#000000" font-family="sans-serif" font-size="13" font-weight="bold" lengthAdjust="spacingAndGlyphs" textLength="127" x="359.75" y="443.1621">Example of Algolet</text><polygon fill="#A80036" points="438,477.2148,428,481.2148,438,485.2148,434,481.2148" style="stroke: #A80036; stroke-width: 1.0;"/><line style="stroke: #A80036; stroke-width: 1.0;" x1="432" x2="719" y1="481.2148" y2="481.2148"/><text fill="#000000" font-family="sans-serif" font-size="13" lengthAdjust="spacingAndGlyphs" textLength="269" x="444" y="476.4727">Dispatch mutations to generate score (IPC)</text><line style="stroke: #A80036; stroke-width: 1.0;" x1="427" x2="469" y1="510.5254" y2="510.5254"/><line style="stroke: #A80036; stroke-width: 1.0;" x1="469" x2="469" y1="510.5254" y2="523.5254"/><line style="stroke: #A80036; stroke-width: 1.0;" x1="428" x2="469" y1="523.5254" y2="523.5254"/><polygon fill="#A80036" points="438,519.5254,428,523.5254,438,527.5254,434,523.5254" style="stroke: #A80036; stroke-width: 1.0;"/><text fill="#000000" font-family="sans-serif" font-size="13" lengthAdjust="spacingAndGlyphs" textLength="86" x="434" y="505.7832">Updates State</text><polygon fill="#A80036" points="708,548.8359,718,552.8359,708,556.8359,712,552.8359" style="stroke: #A80036; stroke-width: 1.0;"/><line style="stroke: #A80036; stroke-width: 1.0; stroke-dasharray: 2.0,2.0;" x1="427" x2="714" y1="552.8359" y2="552.8359"/><text fill="#000000" font-family="sans-serif" font-size="13" lengthAdjust="spacingAndGlyphs" textLength="151" x="434" y="548.0938">Broadcast updated state</text><polygon fill="#A80036" points="792,578.1465,802,582.1465,792,586.1465,796,582.1465" style="stroke: #A80036; stroke-width: 1.0;"/><line style="stroke: #A80036; stroke-width: 1.0; stroke-dasharray: 2.0,2.0;" x1="427" x2="798" y1="582.1465" y2="582.1465"/><text fill="#000000" font-family="sans-serif" font-size="13" lengthAdjust="spacingAndGlyphs" textLength="151" x="434" y="577.4043">Broadcast updated state</text><rect fill="#EEEEEE" filter="url(#ftyzismva9r2m)" height="3" style="stroke: #EEEEEE; stroke-width: 1.0;" width="846.5" x="3" y="610.8018"/><line style="stroke: #000000; stroke-width: 1.0;" x1="3" x2="849.5" y1="610.8018" y2="610.8018"/><line style="stroke: #000000; stroke-width: 1.0;" x1="3" x2="849.5" y1="613.8018" y2="613.8018"/><rect fill="#EEEEEE" filter="url(#ftyzismva9r2m)" height="23.3105" style="stroke: #000000; stroke-width: 2.0;" width="159" x="346.75" y="600.1465"/><text fill="#000000" font-family="sans-serif" font-size="13" font-weight="bold" lengthAdjust="spacingAndGlyphs" textLength="141" x="352.75" y="616.7148">Example of Mobilelet</text><polygon fill="#A80036" points="438,650.7676,428,654.7676,438,658.7676,434,654.7676" style="stroke: #A80036; stroke-width: 1.0;"/><line style="stroke: #A80036; stroke-width: 1.0;" x1="432" x2="803" y1="654.7676" y2="654.7676"/><text fill="#000000" font-family="sans-serif" font-size="13" lengthAdjust="spacingAndGlyphs" textLength="243" x="444" y="650.0254">Dispatch Mutations to quantize (HTTP)</text><line style="stroke: #A80036; stroke-width: 1.0;" x1="427" x2="469" y1="684.0781" y2="684.0781"/><line style="stroke: #A80036; stroke-width: 1.0;" x1="469" x2="469" y1="684.0781" y2="697.0781"/><line style="stroke: #A80036; stroke-width: 1.0;" x1="428" x2="469" y1="697.0781" y2="697.0781"/><polygon fill="#A80036" points="438,693.0781,428,697.0781,438,701.0781,434,697.0781" style="stroke: #A80036; stroke-width: 1.0;"/><text fill="#000000" font-family="sans-serif" font-size="13" lengthAdjust="spacingAndGlyphs" textLength="86" x="434" y="679.3359">Updates State</text><polygon fill="#A80036" points="708,722.3887,718,726.3887,708,730.3887,712,726.3887" style="stroke: #A80036; stroke-width: 1.0;"/><line style="stroke: #A80036; stroke-width: 1.0; stroke-dasharray: 2.0,2.0;" x1="427" x2="714" y1="726.3887" y2="726.3887"/><text fill="#000000" font-family="sans-serif" font-size="13" lengthAdjust="spacingAndGlyphs" textLength="151" x="434" y="721.6465">Broadcast updated state</text><polygon fill="#A80036" points="792,751.6992,802,755.6992,792,759.6992,796,755.6992" style="stroke: #A80036; stroke-width: 1.0;"/><line style="stroke: #A80036; stroke-width: 1.0; stroke-dasharray: 2.0,2.0;" x1="427" x2="798" y1="755.6992" y2="755.6992"/><text fill="#000000" font-family="sans-serif" font-size="13" lengthAdjust="spacingAndGlyphs" textLength="151" x="434" y="750.957">Broadcast updated state</text><!--
@startuml
actor User
database fs


== Initialization ==

User -> Launcher: Click Launcher App
Launcher -> Launcher: Opens GUI
Launcher -> fs: Fetches Available Dawlets
fs - -> Launcher: [ Algolet, Mobilelet ]
User -> Launcher: Sets Algolet with IPC
User -> Launcher: Sets with http
Launcher -> Corelet: Boots Apollo Server Up
Corelet -> Algolet: Boots Algolet Up (Spawn)
Launcher -> Mobilelet: Boots Mobilelet Up

== Example of Algolet ==

Algolet -> Corelet: Dispatch mutations to generate score (IPC)
Corelet -> Corelet: Updates State
Corelet - -> Algolet: Broadcast updated state
Corelet - -> Mobilelet: Broadcast updated state

== Example of Mobilelet ==

Mobilelet -> Corelet: Dispatch Mutations to quantize (HTTP)
Corelet -> Corelet: Updates State
Corelet - -> Algolet: Broadcast updated state
Corelet - -> Mobilelet: Broadcast updated state

@enduml

PlantUML version 1.2019.09(Tue Aug 27 01:19:51 JST 2019)
(GPL source distribution)
Java Runtime: Java(TM) SE Runtime Environment
JVM: Java HotSpot(TM) 64-Bit Server VM
Java Version: 1.8.0_191-b12
Operating System: Mac OS X
OS Version: 10.14.4
Default Encoding: UTF-8
Language: en
Country: JP
--></g></svg>